<svg width="255" height="67" viewBox="0 0 255 67" fill="none" xmlns="http://www.w3.org/2000/svg">
<mask id="path-1-outside-1_183_7" maskUnits="userSpaceOnUse" x="0.800049" y="0.600098" width="255" height="67" fill="black">
<rect fill="white" x="0.800049" y="0.600098" width="255" height="67"/>
<path d="M28.26 56.9701C28.26 57.5768 26.8367 58.0668 23.99 58.4401C21.1434 58.8134 18.2967 59.0001 15.45 59.0001C12.6034 59.0001 10.7834 58.8368 9.99005 58.5101C9.19672 58.1834 8.80005 57.6701 8.80005 56.9701V11.9601C8.80005 9.7201 15.52 8.6001 28.96 8.6001C37.08 8.6001 42.4467 9.1601 45.0601 10.2801C48.2334 11.5868 50.3801 13.3601 51.5 15.6001C52.9934 18.4934 53.7401 22.2034 53.7401 26.7301C53.7401 32.9368 52.6667 37.4401 50.5201 40.2401C48.98 42.2934 47.4401 43.6234 45.9001 44.2301C44.3601 44.8368 43.0767 45.2801 42.0501 45.5601C41.0701 45.7934 39.8334 45.9801 38.34 46.1201C36.2867 46.3068 33.4867 46.4001 29.94 46.4001L28.26 46.3301V56.9701ZM28.33 34.7101H30.01C30.8967 34.7101 31.5967 34.5934 32.1101 34.3601C32.6234 34.0801 33.0667 33.3801 33.4401 32.2601C33.8601 31.0934 34.07 29.4834 34.07 27.4301C34.07 25.3301 33.8367 23.7434 33.3701 22.6701C32.9501 21.5501 32.5067 20.8968 32.04 20.7101C31.62 20.4768 31.1067 20.3601 30.5 20.3601H28.33V34.7101Z"/>
<path d="M73.4423 55.4301C73.349 56.7834 72.6256 57.7168 71.2723 58.2301C69.9656 58.7434 67.5856 59.0001 64.1323 59.0001C60.679 59.0001 57.7856 58.6968 55.4523 58.0901C53.1656 57.4368 52.0223 56.6201 52.0223 55.6401C52.0223 54.5201 54.099 47.3801 58.2523 34.2201C62.4056 21.0134 64.7856 13.4068 65.3923 11.4001C65.6256 10.7934 67.4923 10.3034 70.9923 9.9301C74.539 9.5101 78.319 9.3001 82.3323 9.3001C86.3923 9.3001 88.6323 10.0001 89.0523 11.4001C97.8723 40.7068 102.282 55.5934 102.282 56.0601C102.282 56.5268 102.002 56.9934 101.442 57.4601C100.136 58.4868 97.5457 59.0001 93.6723 59.0001C85.4123 59.0001 81.189 58.0201 81.0023 56.0601L80.5123 51.5101H73.7923L73.4423 55.4301ZM79.0423 38.2101L77.9923 25.6101H76.4523L75.2623 38.2101H79.0423Z"/>
<path d="M125.402 56.9701C125.402 57.5768 123.979 58.0668 121.132 58.4401C118.285 58.8134 115.415 59.0001 112.522 59.0001C109.675 59.0001 107.832 58.8368 106.992 58.5101C106.199 58.1834 105.802 57.6701 105.802 56.9701V11.9601C105.802 10.7468 107.319 9.88343 110.352 9.3701C113.432 8.85676 117.305 8.6001 121.972 8.6001C126.639 8.6001 129.649 8.62343 131.002 8.6701C132.402 8.6701 134.035 8.7401 135.902 8.8801C137.769 9.0201 139.239 9.25343 140.312 9.5801C141.432 9.90676 142.645 10.3268 143.952 10.8401C145.305 11.3534 146.355 12.0301 147.102 12.8701C147.849 13.6634 148.572 14.6201 149.272 15.7401C150.532 17.7468 151.162 20.6168 151.162 24.3501C151.162 28.0368 150.532 31.1634 149.272 33.7301C148.059 36.2501 146.425 38.1634 144.372 39.4701C149.739 47.9168 152.422 53.2834 152.422 55.5701C152.422 57.8568 147.825 59.0001 138.632 59.0001C135.972 59.0001 134.129 58.8834 133.102 58.6501C132.075 58.4168 131.422 57.9034 131.142 57.1101L126.592 42.6901L125.402 42.6201V56.9701ZM125.402 31.8401H127.222C129.929 31.8401 131.282 29.7401 131.282 25.5401C131.282 23.3934 130.909 21.8768 130.162 20.9901C129.462 20.1034 128.645 19.6601 127.712 19.6601H125.402V31.8401Z"/>
<path d="M185.659 57.3201C185.659 57.8334 184.213 58.2534 181.319 58.5801C178.473 58.8601 175.603 59.0001 172.709 59.0001C169.863 59.0001 168.043 58.8834 167.249 58.6501C166.503 58.3701 166.129 57.9268 166.129 57.3201V27.2201H156.399C155.886 27.2201 155.443 26.5668 155.069 25.2601C154.696 23.9534 154.509 22.0168 154.509 19.4501C154.509 16.8368 154.789 14.5034 155.349 12.4501C155.909 10.3501 156.656 9.3001 157.589 9.3001H195.459C196.159 9.3001 196.626 9.95343 196.859 11.2601C197.139 12.5668 197.279 14.4568 197.279 16.9301C197.279 19.4034 197.023 21.7368 196.509 23.9301C195.996 26.1234 195.296 27.2201 194.409 27.2201H185.659V57.3201Z"/>
<path d="M232.795 56.9701C232.795 57.5768 231.372 58.0668 228.525 58.4401C225.678 58.8134 222.832 59.0001 219.985 59.0001C217.185 59.0001 215.365 58.8601 214.525 58.5801C213.685 58.2534 213.265 57.7168 213.265 56.9701V44.7901C204.025 25.8901 199.405 15.6234 199.405 13.9901C199.405 13.0101 200.968 11.9834 204.095 10.9101C207.222 9.83676 210.512 9.3001 213.965 9.3001C218.398 9.3001 220.755 10.6068 221.035 13.2201L222.925 32.0501H223.695L225.025 13.7101C225.118 12.4034 226.775 11.3534 229.995 10.5601C233.215 9.7201 236.272 9.3001 239.165 9.3001C242.058 9.3001 244.065 9.7201 245.185 10.5601C246.305 11.4001 246.865 12.2868 246.865 13.2201C246.865 14.1068 242.175 24.6301 232.795 44.7901V56.9701Z"/>
</mask>
<path d="M28.26 56.9701C28.26 57.5768 26.8367 58.0668 23.99 58.4401C21.1434 58.8134 18.2967 59.0001 15.45 59.0001C12.6034 59.0001 10.7834 58.8368 9.99005 58.5101C9.19672 58.1834 8.80005 57.6701 8.80005 56.9701V11.9601C8.80005 9.7201 15.52 8.6001 28.96 8.6001C37.08 8.6001 42.4467 9.1601 45.0601 10.2801C48.2334 11.5868 50.3801 13.3601 51.5 15.6001C52.9934 18.4934 53.7401 22.2034 53.7401 26.7301C53.7401 32.9368 52.6667 37.4401 50.5201 40.2401C48.98 42.2934 47.4401 43.6234 45.9001 44.2301C44.3601 44.8368 43.0767 45.2801 42.0501 45.5601C41.0701 45.7934 39.8334 45.9801 38.34 46.1201C36.2867 46.3068 33.4867 46.4001 29.94 46.4001L28.26 46.3301V56.9701ZM28.33 34.7101H30.01C30.8967 34.7101 31.5967 34.5934 32.1101 34.3601C32.6234 34.0801 33.0667 33.3801 33.4401 32.2601C33.8601 31.0934 34.07 29.4834 34.07 27.4301C34.07 25.3301 33.8367 23.7434 33.3701 22.6701C32.9501 21.5501 32.5067 20.8968 32.04 20.7101C31.62 20.4768 31.1067 20.3601 30.5 20.3601H28.33V34.7101Z" fill="white"/>
<path d="M73.4423 55.4301C73.349 56.7834 72.6256 57.7168 71.2723 58.2301C69.9656 58.7434 67.5856 59.0001 64.1323 59.0001C60.679 59.0001 57.7856 58.6968 55.4523 58.0901C53.1656 57.4368 52.0223 56.6201 52.0223 55.6401C52.0223 54.5201 54.099 47.3801 58.2523 34.2201C62.4056 21.0134 64.7856 13.4068 65.3923 11.4001C65.6256 10.7934 67.4923 10.3034 70.9923 9.9301C74.539 9.5101 78.319 9.3001 82.3323 9.3001C86.3923 9.3001 88.6323 10.0001 89.0523 11.4001C97.8723 40.7068 102.282 55.5934 102.282 56.0601C102.282 56.5268 102.002 56.9934 101.442 57.4601C100.136 58.4868 97.5457 59.0001 93.6723 59.0001C85.4123 59.0001 81.189 58.0201 81.0023 56.0601L80.5123 51.5101H73.7923L73.4423 55.4301ZM79.0423 38.2101L77.9923 25.6101H76.4523L75.2623 38.2101H79.0423Z" fill="white"/>
<path d="M125.402 56.9701C125.402 57.5768 123.979 58.0668 121.132 58.4401C118.285 58.8134 115.415 59.0001 112.522 59.0001C109.675 59.0001 107.832 58.8368 106.992 58.5101C106.199 58.1834 105.802 57.6701 105.802 56.9701V11.9601C105.802 10.7468 107.319 9.88343 110.352 9.3701C113.432 8.85676 117.305 8.6001 121.972 8.6001C126.639 8.6001 129.649 8.62343 131.002 8.6701C132.402 8.6701 134.035 8.7401 135.902 8.8801C137.769 9.0201 139.239 9.25343 140.312 9.5801C141.432 9.90676 142.645 10.3268 143.952 10.8401C145.305 11.3534 146.355 12.0301 147.102 12.8701C147.849 13.6634 148.572 14.6201 149.272 15.7401C150.532 17.7468 151.162 20.6168 151.162 24.3501C151.162 28.0368 150.532 31.1634 149.272 33.7301C148.059 36.2501 146.425 38.1634 144.372 39.4701C149.739 47.9168 152.422 53.2834 152.422 55.5701C152.422 57.8568 147.825 59.0001 138.632 59.0001C135.972 59.0001 134.129 58.8834 133.102 58.6501C132.075 58.4168 131.422 57.9034 131.142 57.1101L126.592 42.6901L125.402 42.6201V56.9701ZM125.402 31.8401H127.222C129.929 31.8401 131.282 29.7401 131.282 25.5401C131.282 23.3934 130.909 21.8768 130.162 20.9901C129.462 20.1034 128.645 19.6601 127.712 19.6601H125.402V31.8401Z" fill="white"/>
<path d="M185.659 57.3201C185.659 57.8334 184.213 58.2534 181.319 58.5801C178.473 58.8601 175.603 59.0001 172.709 59.0001C169.863 59.0001 168.043 58.8834 167.249 58.6501C166.503 58.3701 166.129 57.9268 166.129 57.3201V27.2201H156.399C155.886 27.2201 155.443 26.5668 155.069 25.2601C154.696 23.9534 154.509 22.0168 154.509 19.4501C154.509 16.8368 154.789 14.5034 155.349 12.4501C155.909 10.3501 156.656 9.3001 157.589 9.3001H195.459C196.159 9.3001 196.626 9.95343 196.859 11.2601C197.139 12.5668 197.279 14.4568 197.279 16.9301C197.279 19.4034 197.023 21.7368 196.509 23.9301C195.996 26.1234 195.296 27.2201 194.409 27.2201H185.659V57.3201Z" fill="white"/>
<path d="M232.795 56.9701C232.795 57.5768 231.372 58.0668 228.525 58.4401C225.678 58.8134 222.832 59.0001 219.985 59.0001C217.185 59.0001 215.365 58.8601 214.525 58.5801C213.685 58.2534 213.265 57.7168 213.265 56.9701V44.7901C204.025 25.8901 199.405 15.6234 199.405 13.9901C199.405 13.0101 200.968 11.9834 204.095 10.9101C207.222 9.83676 210.512 9.3001 213.965 9.3001C218.398 9.3001 220.755 10.6068 221.035 13.2201L222.925 32.0501H223.695L225.025 13.7101C225.118 12.4034 226.775 11.3534 229.995 10.5601C233.215 9.7201 236.272 9.3001 239.165 9.3001C242.058 9.3001 244.065 9.7201 245.185 10.5601C246.305 11.4001 246.865 12.2868 246.865 13.2201C246.865 14.1068 242.175 24.6301 232.795 44.7901V56.9701Z" fill="white"/>
<path d="M28.26 56.9701C28.26 57.5768 26.8367 58.0668 23.99 58.4401C21.1434 58.8134 18.2967 59.0001 15.45 59.0001C12.6034 59.0001 10.7834 58.8368 9.99005 58.5101C9.19672 58.1834 8.80005 57.6701 8.80005 56.9701V11.9601C8.80005 9.7201 15.52 8.6001 28.96 8.6001C37.08 8.6001 42.4467 9.1601 45.0601 10.2801C48.2334 11.5868 50.3801 13.3601 51.5 15.6001C52.9934 18.4934 53.7401 22.2034 53.7401 26.7301C53.7401 32.9368 52.6667 37.4401 50.5201 40.2401C48.98 42.2934 47.4401 43.6234 45.9001 44.2301C44.3601 44.8368 43.0767 45.2801 42.0501 45.5601C41.0701 45.7934 39.8334 45.9801 38.34 46.1201C36.2867 46.3068 33.4867 46.4001 29.94 46.4001L28.26 46.3301V56.9701ZM28.33 34.7101H30.01C30.8967 34.7101 31.5967 34.5934 32.1101 34.3601C32.6234 34.0801 33.0667 33.3801 33.4401 32.2601C33.8601 31.0934 34.07 29.4834 34.07 27.4301C34.07 25.3301 33.8367 23.7434 33.3701 22.6701C32.9501 21.5501 32.5067 20.8968 32.04 20.7101C31.62 20.4768 31.1067 20.3601 30.5 20.3601H28.33V34.7101Z" stroke="url(#paint0_linear_183_7)" stroke-width="16" mask="url(#path-1-outside-1_183_7)"/>
<path d="M73.4423 55.4301C73.349 56.7834 72.6256 57.7168 71.2723 58.2301C69.9656 58.7434 67.5856 59.0001 64.1323 59.0001C60.679 59.0001 57.7856 58.6968 55.4523 58.0901C53.1656 57.4368 52.0223 56.6201 52.0223 55.6401C52.0223 54.5201 54.099 47.3801 58.2523 34.2201C62.4056 21.0134 64.7856 13.4068 65.3923 11.4001C65.6256 10.7934 67.4923 10.3034 70.9923 9.9301C74.539 9.5101 78.319 9.3001 82.3323 9.3001C86.3923 9.3001 88.6323 10.0001 89.0523 11.4001C97.8723 40.7068 102.282 55.5934 102.282 56.0601C102.282 56.5268 102.002 56.9934 101.442 57.4601C100.136 58.4868 97.5457 59.0001 93.6723 59.0001C85.4123 59.0001 81.189 58.0201 81.0023 56.0601L80.5123 51.5101H73.7923L73.4423 55.4301ZM79.0423 38.2101L77.9923 25.6101H76.4523L75.2623 38.2101H79.0423Z" stroke="url(#paint1_linear_183_7)" stroke-width="16" mask="url(#path-1-outside-1_183_7)"/>
<path d="M125.402 56.9701C125.402 57.5768 123.979 58.0668 121.132 58.4401C118.285 58.8134 115.415 59.0001 112.522 59.0001C109.675 59.0001 107.832 58.8368 106.992 58.5101C106.199 58.1834 105.802 57.6701 105.802 56.9701V11.9601C105.802 10.7468 107.319 9.88343 110.352 9.3701C113.432 8.85676 117.305 8.6001 121.972 8.6001C126.639 8.6001 129.649 8.62343 131.002 8.6701C132.402 8.6701 134.035 8.7401 135.902 8.8801C137.769 9.0201 139.239 9.25343 140.312 9.5801C141.432 9.90676 142.645 10.3268 143.952 10.8401C145.305 11.3534 146.355 12.0301 147.102 12.8701C147.849 13.6634 148.572 14.6201 149.272 15.7401C150.532 17.7468 151.162 20.6168 151.162 24.3501C151.162 28.0368 150.532 31.1634 149.272 33.7301C148.059 36.2501 146.425 38.1634 144.372 39.4701C149.739 47.9168 152.422 53.2834 152.422 55.5701C152.422 57.8568 147.825 59.0001 138.632 59.0001C135.972 59.0001 134.129 58.8834 133.102 58.6501C132.075 58.4168 131.422 57.9034 131.142 57.1101L126.592 42.6901L125.402 42.6201V56.9701ZM125.402 31.8401H127.222C129.929 31.8401 131.282 29.7401 131.282 25.5401C131.282 23.3934 130.909 21.8768 130.162 20.9901C129.462 20.1034 128.645 19.6601 127.712 19.6601H125.402V31.8401Z" stroke="url(#paint2_linear_183_7)" stroke-width="16" mask="url(#path-1-outside-1_183_7)"/>
<path d="M185.659 57.3201C185.659 57.8334 184.213 58.2534 181.319 58.5801C178.473 58.8601 175.603 59.0001 172.709 59.0001C169.863 59.0001 168.043 58.8834 167.249 58.6501C166.503 58.3701 166.129 57.9268 166.129 57.3201V27.2201H156.399C155.886 27.2201 155.443 26.5668 155.069 25.2601C154.696 23.9534 154.509 22.0168 154.509 19.4501C154.509 16.8368 154.789 14.5034 155.349 12.4501C155.909 10.3501 156.656 9.3001 157.589 9.3001H195.459C196.159 9.3001 196.626 9.95343 196.859 11.2601C197.139 12.5668 197.279 14.4568 197.279 16.9301C197.279 19.4034 197.023 21.7368 196.509 23.9301C195.996 26.1234 195.296 27.2201 194.409 27.2201H185.659V57.3201Z" stroke="url(#paint3_linear_183_7)" stroke-width="16" mask="url(#path-1-outside-1_183_7)"/>
<path d="M232.795 56.9701C232.795 57.5768 231.372 58.0668 228.525 58.4401C225.678 58.8134 222.832 59.0001 219.985 59.0001C217.185 59.0001 215.365 58.8601 214.525 58.5801C213.685 58.2534 213.265 57.7168 213.265 56.9701V44.7901C204.025 25.8901 199.405 15.6234 199.405 13.9901C199.405 13.0101 200.968 11.9834 204.095 10.9101C207.222 9.83676 210.512 9.3001 213.965 9.3001C218.398 9.3001 220.755 10.6068 221.035 13.2201L222.925 32.0501H223.695L225.025 13.7101C225.118 12.4034 226.775 11.3534 229.995 10.5601C233.215 9.7201 236.272 9.3001 239.165 9.3001C242.058 9.3001 244.065 9.7201 245.185 10.5601C246.305 11.4001 246.865 12.2868 246.865 13.2201C246.865 14.1068 242.175 24.6301 232.795 44.7901V56.9701Z" stroke="url(#paint4_linear_183_7)" stroke-width="16" mask="url(#path-1-outside-1_183_7)"/>
<defs>
<linearGradient id="paint0_linear_183_7" x1="6" y1="-9.00001" x2="248" y2="71" gradientUnits="userSpaceOnUse">
<stop stop-color="#06C1FF"/>
<stop offset="0.317708" stop-color="#4672FF"/>
<stop offset="0.651042" stop-color="#FF00F3"/>
<stop offset="1" stop-color="#FF2359"/>
</linearGradient>
<linearGradient id="paint1_linear_183_7" x1="6" y1="-9.00001" x2="248" y2="71" gradientUnits="userSpaceOnUse">
<stop stop-color="#06C1FF"/>
<stop offset="0.317708" stop-color="#4672FF"/>
<stop offset="0.651042" stop-color="#FF00F3"/>
<stop offset="1" stop-color="#FF2359"/>
</linearGradient>
<linearGradient id="paint2_linear_183_7" x1="6" y1="-9.00001" x2="248" y2="71" gradientUnits="userSpaceOnUse">
<stop stop-color="#06C1FF"/>
<stop offset="0.317708" stop-color="#4672FF"/>
<stop offset="0.651042" stop-color="#FF00F3"/>
<stop offset="1" stop-color="#FF2359"/>
</linearGradient>
<linearGradient id="paint3_linear_183_7" x1="6" y1="-9.00001" x2="248" y2="71" gradientUnits="userSpaceOnUse">
<stop stop-color="#06C1FF"/>
<stop offset="0.317708" stop-color="#4672FF"/>
<stop offset="0.651042" stop-color="#FF00F3"/>
<stop offset="1" stop-color="#FF2359"/>
</linearGradient>
<linearGradient id="paint4_linear_183_7" x1="6" y1="-9.00001" x2="248" y2="71" gradientUnits="userSpaceOnUse">
<stop stop-color="#06C1FF"/>
<stop offset="0.317708" stop-color="#4672FF"/>
<stop offset="0.651042" stop-color="#FF00F3"/>
<stop offset="1" stop-color="#FF2359"/>
</linearGradient>
</defs>
</svg>
