<svg className = "" width="161" height="120" viewBox="0 0 61 22" fill="none" xmlns="http://www.w3.org/2000/svg">
    <path d="M2.06152 3.20215C2.94043 3.20215 3.6582 2.48438 3.6582 1.62012C3.6582 0.741211 2.94043 0.0380859 2.06152 0.0380859C1.19727 0.0380859 0.479492 0.741211 0.479492 1.62012C0.479492 2.48438 1.19727 3.20215 2.06152 3.20215ZM2.06152 21.2637C2.80859 21.2637 3.33594 20.707 3.33594 19.9014V6.86426C3.33594 6.05859 2.80859 5.50195 2.06152 5.50195C1.31445 5.50195 0.787109 6.05859 0.787109 6.86426V19.9014C0.787109 20.707 1.31445 21.2637 2.06152 21.2637ZM17.2227 21.2637C18.0283 21.2637 18.585 20.8389 18.8193 20.0332L21.9688 9.20801H22.0273L25.1914 20.0332C25.4404 20.8975 25.9238 21.2637 26.7734 21.2637C27.5645 21.2637 28.0918 20.8535 28.3262 20.0332L32.0469 7.25977C32.1201 7.01074 32.1494 6.79102 32.1494 6.60059C32.1494 5.92676 31.666 5.50195 30.9043 5.50195C30.2744 5.50195 29.9375 5.79492 29.7471 6.54199L26.7441 18.1582H26.6855L23.4629 6.62988C23.2578 5.88281 22.7744 5.50195 22.0127 5.50195C21.2363 5.50195 20.7236 5.89746 20.5186 6.64453L17.3252 18.1582H17.2666L14.2637 6.54199C14.0732 5.79492 13.7363 5.50195 13.1064 5.50195C12.3447 5.50195 11.8613 5.92676 11.8613 6.60059C11.8613 6.79102 11.8906 7.01074 11.9639 7.25977L15.6846 20.0332C15.9336 20.8828 16.417 21.2637 17.2227 21.2637ZM38.5508 21.2637C40.6016 21.2637 42.5498 20.1211 43.458 18.3779H43.5166V19.9746C43.5166 20.7363 44.0146 21.2637 44.7324 21.2637C45.4355 21.2637 45.9336 20.7363 45.9336 19.9746V10.4678C45.9336 7.43555 43.6777 5.50195 40.1035 5.50195C37.6279 5.50195 35.4014 6.60059 34.5371 8.27051C34.332 8.63672 34.2295 9.00293 34.2295 9.3252C34.2295 10.0137 34.6982 10.4678 35.3574 10.4678C35.8408 10.4678 36.1777 10.2773 36.4121 9.85254C37.2617 8.34375 38.3896 7.74316 40.0449 7.74316C42.1543 7.74316 43.3848 8.85645 43.3848 10.7168V11.9912L39.0049 12.2402C35.4893 12.4453 33.4824 14.0859 33.4824 16.6934C33.4824 19.4326 35.5186 21.2637 38.5508 21.2637ZM39.1221 19.0957C37.291 19.0957 36.0752 18.1436 36.0752 16.6934C36.0752 15.2578 37.2471 14.3496 39.2979 14.2178L43.3848 13.9688V15.2139C43.3848 17.4111 41.5244 19.0957 39.1221 19.0957ZM54.459 21.2637C58.0771 21.2637 60.5234 19.4326 60.5234 16.708C60.5234 14.4668 59.3516 13.3535 56.1729 12.5771L53.9023 12.0205C52.2324 11.6104 51.4121 10.8779 51.4121 9.82324C51.4121 8.51953 52.6865 7.59668 54.5176 7.59668C56.0703 7.59668 57.0518 8.15332 57.7109 9.42773C57.9893 9.95508 58.3408 10.1162 58.8389 10.1162C59.4541 10.1162 59.835 9.7207 59.835 9.12012C59.835 9.00293 59.8203 8.88574 59.791 8.73926C59.3955 6.9082 57.1689 5.50195 54.6641 5.50195C51.2217 5.50195 48.8926 7.30371 48.8926 9.95508C48.8926 12.0938 50.3135 13.4854 53.2578 14.2178L55.5869 14.8037C57.3008 15.2285 57.9307 15.8145 57.9307 16.9131C57.9307 18.334 56.6123 19.1836 54.6641 19.1836C52.7158 19.1836 51.8076 18.583 51.0459 17.25C50.7529 16.7227 50.3867 16.4883 49.9326 16.4883C49.2734 16.4883 48.7754 16.8691 48.7754 17.543C48.7754 17.7334 48.8047 17.9238 48.8926 18.1436C49.625 20.0479 51.749 21.2637 54.459 21.2637Z" fill="white"/>
</svg>