<svg width="700" class = "svg-text" height="70" viewBox="0 0 308 28" fill="none" xmlns="http://www.w3.org/2000/svg">
<path d="M5.09375 22.2637C7.14453 22.2637 9.09277 21.1211 10.001 19.3779H10.0596V20.9746C10.0596 21.7363 10.5576 22.2637 11.2754 22.2637C11.9785 22.2637 12.4766 21.7363 12.4766 20.9746V11.4678C12.4766 8.43555 10.2207 6.50195 6.64648 6.50195C4.1709 6.50195 1.94434 7.60059 1.08008 9.27051C0.875 9.63672 0.772461 10.0029 0.772461 10.3252C0.772461 11.0137 1.24121 11.4678 1.90039 11.4678C2.38379 11.4678 2.7207 11.2773 2.95508 10.8525C3.80469 9.34375 4.93262 8.74316 6.58789 8.74316C8.69727 8.74316 9.92773 9.85645 9.92773 11.7168V12.9912L5.54785 13.2402C2.03223 13.4453 0.0253906 15.0859 0.0253906 17.6934C0.0253906 20.4326 2.06152 22.2637 5.09375 22.2637ZM5.66504 20.0957C3.83398 20.0957 2.61816 19.1436 2.61816 17.6934C2.61816 16.2578 3.79004 15.3496 5.84082 15.2178L9.92773 14.9688V16.2139C9.92773 18.4111 8.06738 20.0957 5.66504 20.0957ZM16.9883 22.2637C17.7354 22.2637 18.2627 21.707 18.2627 20.9014V13.0352C18.2627 10.457 19.8301 8.75781 22.2324 8.75781C24.5762 8.75781 25.7334 10.1055 25.7334 12.5664V20.9014C25.7334 21.707 26.2607 22.2637 27.0078 22.2637C27.7549 22.2637 28.2822 21.707 28.2822 20.9014V12.1123C28.2822 8.65527 26.3486 6.50195 23.0088 6.50195C20.6504 6.50195 19.0244 7.55664 18.1748 9.19727H18.1162V7.79102C18.1162 7.0293 17.6182 6.50195 16.915 6.50195C16.2119 6.50195 15.7139 7.0293 15.7139 7.79102V20.9014C15.7139 21.707 16.2412 22.2637 16.9883 22.2637ZM37.3057 22.2637C39.6934 22.2637 41.2754 21.0918 42.1104 19.2754H42.1543V21.0186C42.1543 21.7656 42.7402 22.2637 43.458 22.2637C44.1904 22.2637 44.7031 21.751 44.7031 21.0186V1.96094C44.7031 1.15527 44.1758 0.598633 43.4287 0.598633C42.6816 0.598633 42.1543 1.15527 42.1543 1.96094V9.24121H42.0957C41.1875 7.57129 39.4297 6.50195 37.2471 6.50195C33.4092 6.50195 30.7871 9.60742 30.7871 14.3828C30.7871 19.1582 33.4238 22.2637 37.3057 22.2637ZM37.7891 20.0225C35.0938 20.0225 33.3945 17.8398 33.3945 14.3828C33.3945 10.9404 35.0938 8.74316 37.7891 8.74316C40.4111 8.74316 42.1689 10.9844 42.1689 14.3828C42.1689 17.7959 40.4111 20.0225 37.7891 20.0225ZM58.7363 22.2637C60.7871 22.2637 62.7354 21.1211 63.6436 19.3779H63.7021V20.9746C63.7021 21.7363 64.2002 22.2637 64.918 22.2637C65.6211 22.2637 66.1191 21.7363 66.1191 20.9746V11.4678C66.1191 8.43555 63.8633 6.50195 60.2891 6.50195C57.8135 6.50195 55.5869 7.60059 54.7227 9.27051C54.5176 9.63672 54.415 10.0029 54.415 10.3252C54.415 11.0137 54.8838 11.4678 55.543 11.4678C56.0264 11.4678 56.3633 11.2773 56.5977 10.8525C57.4473 9.34375 58.5752 8.74316 60.2305 8.74316C62.3398 8.74316 63.5703 9.85645 63.5703 11.7168V12.9912L59.1904 13.2402C55.6748 13.4453 53.668 15.0859 53.668 17.6934C53.668 20.4326 55.7041 22.2637 58.7363 22.2637ZM59.3076 20.0957C57.4766 20.0957 56.2607 19.1436 56.2607 17.6934C56.2607 16.2578 57.4326 15.3496 59.4834 15.2178L63.5703 14.9688V16.2139C63.5703 18.4111 61.71 20.0957 59.3076 20.0957ZM70.7627 22.2637C71.5098 22.2637 72.0371 21.707 72.0371 20.9014V1.96094C72.0371 1.15527 71.5098 0.598633 70.7627 0.598633C70.0156 0.598633 69.4883 1.15527 69.4883 1.96094V20.9014C69.4883 21.707 70.0156 22.2637 70.7627 22.2637ZM76.8857 22.2637C77.6328 22.2637 78.1602 21.707 78.1602 20.9014V1.96094C78.1602 1.15527 77.6328 0.598633 76.8857 0.598633C76.1387 0.598633 75.6113 1.15527 75.6113 1.96094V20.9014C75.6113 21.707 76.1387 22.2637 76.8857 22.2637ZM89.1611 4.20215C90.04 4.20215 90.7578 3.48438 90.7578 2.62012C90.7578 1.74121 90.04 1.03809 89.1611 1.03809C88.2969 1.03809 87.5791 1.74121 87.5791 2.62012C87.5791 3.48438 88.2969 4.20215 89.1611 4.20215ZM89.1611 22.2637C89.9082 22.2637 90.4355 21.707 90.4355 20.9014V7.86426C90.4355 7.05859 89.9082 6.50195 89.1611 6.50195C88.4141 6.50195 87.8867 7.05859 87.8867 7.86426V20.9014C87.8867 21.707 88.4141 22.2637 89.1611 22.2637ZM106.183 27.7422C110.519 27.7861 113.214 25.3252 113.214 21.6924V7.82031C113.214 7.0293 112.672 6.50195 111.939 6.50195C111.207 6.50195 110.665 7.0293 110.665 7.82031V9.27051H110.621C109.61 7.55664 107.926 6.50195 105.772 6.50195C101.832 6.50195 99.2832 9.54883 99.2832 14.3242C99.2832 19.0557 101.832 22.1172 105.714 22.1172C107.853 22.1172 109.669 21.0332 110.606 19.3779H110.665V21.7803C110.665 24.0508 109.01 25.6182 106.285 25.5742C104.732 25.5449 103.663 24.9883 102.359 23.5527C101.964 23.1133 101.715 22.9668 101.29 22.9668C100.616 22.9668 100.147 23.4209 100.147 24.0654C100.147 24.4023 100.235 24.6953 100.44 25.0176C101.51 26.7021 103.634 27.7129 106.183 27.7422ZM106.227 19.876C103.604 19.876 101.891 17.7373 101.891 14.3242C101.891 10.9111 103.604 8.74316 106.227 8.74316C108.878 8.74316 110.665 10.9697 110.665 14.3242C110.665 17.6787 108.878 19.876 106.227 19.876ZM122.838 22.2637C127.042 22.2637 129.884 19.2314 129.884 14.3828C129.884 9.51953 127.042 6.50195 122.838 6.50195C118.619 6.50195 115.777 9.51953 115.777 14.3828C115.777 19.2314 118.619 22.2637 122.838 22.2637ZM122.838 20.0225C120.143 20.0225 118.37 17.9717 118.37 14.3828C118.37 10.7939 120.143 8.74316 122.838 8.74316C125.533 8.74316 127.291 10.7939 127.291 14.3828C127.291 17.9717 125.533 20.0225 122.838 20.0225ZM133.282 18.4844C133.282 20.916 134.513 22.1172 136.974 22.1172H137.135C138.556 22.1172 138.995 21.707 138.995 20.9307C138.995 20.3301 138.614 19.9932 137.779 19.9346L137.56 19.9199C136.285 19.832 135.831 19.2168 135.831 17.9277V8.86035H137.794C138.526 8.86035 138.937 8.47949 138.937 7.80566C138.937 7.14648 138.526 6.76562 137.794 6.76562H135.831V4.1582C135.831 3.35254 135.304 2.7959 134.557 2.7959C133.81 2.7959 133.282 3.35254 133.282 4.1582V6.76562H132.008C131.275 6.76562 130.865 7.14648 130.865 7.80566C130.865 8.47949 131.275 8.86035 132.008 8.86035H133.282V18.4844ZM151.959 22.2637C152.765 22.2637 153.321 21.8389 153.556 21.0332L156.705 10.208H156.764L159.928 21.0332C160.177 21.8975 160.66 22.2637 161.51 22.2637C162.301 22.2637 162.828 21.8535 163.062 21.0332L166.783 8.25977C166.856 8.01074 166.886 7.79102 166.886 7.60059C166.886 6.92676 166.402 6.50195 165.641 6.50195C165.011 6.50195 164.674 6.79492 164.483 7.54199L161.48 19.1582H161.422L158.199 7.62988C157.994 6.88281 157.511 6.50195 156.749 6.50195C155.973 6.50195 155.46 6.89746 155.255 7.64453L152.062 19.1582H152.003L149 7.54199C148.81 6.79492 148.473 6.50195 147.843 6.50195C147.081 6.50195 146.598 6.92676 146.598 7.60059C146.598 7.79102 146.627 8.01074 146.7 8.25977L150.421 21.0332C150.67 21.8828 151.153 22.2637 151.959 22.2637ZM173.287 22.2637C175.338 22.2637 177.286 21.1211 178.194 19.3779H178.253V20.9746C178.253 21.7363 178.751 22.2637 179.469 22.2637C180.172 22.2637 180.67 21.7363 180.67 20.9746V11.4678C180.67 8.43555 178.414 6.50195 174.84 6.50195C172.364 6.50195 170.138 7.60059 169.273 9.27051C169.068 9.63672 168.966 10.0029 168.966 10.3252C168.966 11.0137 169.435 11.4678 170.094 11.4678C170.577 11.4678 170.914 11.2773 171.148 10.8525C171.998 9.34375 173.126 8.74316 174.781 8.74316C176.891 8.74316 178.121 9.85645 178.121 11.7168V12.9912L173.741 13.2402C170.226 13.4453 168.219 15.0859 168.219 17.6934C168.219 20.4326 170.255 22.2637 173.287 22.2637ZM173.858 20.0957C172.027 20.0957 170.812 19.1436 170.812 17.6934C170.812 16.2578 171.983 15.3496 174.034 15.2178L178.121 14.9688V16.2139C178.121 18.4111 176.261 20.0957 173.858 20.0957ZM189.195 22.2637C192.813 22.2637 195.26 20.4326 195.26 17.708C195.26 15.4668 194.088 14.3535 190.909 13.5771L188.639 13.0205C186.969 12.6104 186.148 11.8779 186.148 10.8232C186.148 9.51953 187.423 8.59668 189.254 8.59668C190.807 8.59668 191.788 9.15332 192.447 10.4277C192.726 10.9551 193.077 11.1162 193.575 11.1162C194.19 11.1162 194.571 10.7207 194.571 10.1201C194.571 10.0029 194.557 9.88574 194.527 9.73926C194.132 7.9082 191.905 6.50195 189.4 6.50195C185.958 6.50195 183.629 8.30371 183.629 10.9551C183.629 13.0938 185.05 14.4854 187.994 15.2178L190.323 15.8037C192.037 16.2285 192.667 16.8145 192.667 17.9131C192.667 19.334 191.349 20.1836 189.4 20.1836C187.452 20.1836 186.544 19.583 185.782 18.25C185.489 17.7227 185.123 17.4883 184.669 17.4883C184.01 17.4883 183.512 17.8691 183.512 18.543C183.512 18.7334 183.541 18.9238 183.629 19.1436C184.361 21.0479 186.485 22.2637 189.195 22.2637ZM204.854 18.4844C204.854 20.916 206.085 22.1172 208.546 22.1172H208.707C210.128 22.1172 210.567 21.707 210.567 20.9307C210.567 20.3301 210.187 19.9932 209.352 19.9346L209.132 19.9199C207.857 19.832 207.403 19.2168 207.403 17.9277V8.86035H209.366C210.099 8.86035 210.509 8.47949 210.509 7.80566C210.509 7.14648 210.099 6.76562 209.366 6.76562H207.403V4.1582C207.403 3.35254 206.876 2.7959 206.129 2.7959C205.382 2.7959 204.854 3.35254 204.854 4.1582V6.76562H203.58C202.848 6.76562 202.438 7.14648 202.438 7.80566C202.438 8.47949 202.848 8.86035 203.58 8.86035H204.854V18.4844ZM214.493 22.2637C215.24 22.2637 215.768 21.707 215.768 20.9014V13.123C215.768 10.4863 217.335 8.75781 219.869 8.75781C222.257 8.75781 223.473 10.208 223.473 12.625V20.9014C223.473 21.707 224 22.2637 224.747 22.2637C225.494 22.2637 226.021 21.707 226.021 20.9014V12.1562C226.021 8.75781 224 6.50195 220.66 6.50195C218.346 6.50195 216.676 7.49805 215.826 9.19727H215.768V1.93164C215.768 1.14062 215.27 0.598633 214.493 0.598633C213.731 0.598633 213.219 1.14062 213.219 1.93164V20.9014C213.219 21.707 213.746 22.2637 214.493 22.2637ZM230.665 4.20215C231.544 4.20215 232.262 3.48438 232.262 2.62012C232.262 1.74121 231.544 1.03809 230.665 1.03809C229.801 1.03809 229.083 1.74121 229.083 2.62012C229.083 3.48438 229.801 4.20215 230.665 4.20215ZM230.665 22.2637C231.412 22.2637 231.939 21.707 231.939 20.9014V7.86426C231.939 7.05859 231.412 6.50195 230.665 6.50195C229.918 6.50195 229.391 7.05859 229.391 7.86426V20.9014C229.391 21.707 229.918 22.2637 230.665 22.2637ZM240.67 22.2637C244.288 22.2637 246.734 20.4326 246.734 17.708C246.734 15.4668 245.562 14.3535 242.384 13.5771L240.113 13.0205C238.443 12.6104 237.623 11.8779 237.623 10.8232C237.623 9.51953 238.897 8.59668 240.729 8.59668C242.281 8.59668 243.263 9.15332 243.922 10.4277C244.2 10.9551 244.552 11.1162 245.05 11.1162C245.665 11.1162 246.046 10.7207 246.046 10.1201C246.046 10.0029 246.031 9.88574 246.002 9.73926C245.606 7.9082 243.38 6.50195 240.875 6.50195C237.433 6.50195 235.104 8.30371 235.104 10.9551C235.104 13.0938 236.524 14.4854 239.469 15.2178L241.798 15.8037C243.512 16.2285 244.142 16.8145 244.142 17.9131C244.142 19.334 242.823 20.1836 240.875 20.1836C238.927 20.1836 238.019 19.583 237.257 18.25C236.964 17.7227 236.598 17.4883 236.144 17.4883C235.484 17.4883 234.986 17.8691 234.986 18.543C234.986 18.7334 235.016 18.9238 235.104 19.1436C235.836 21.0479 237.96 22.2637 240.67 22.2637ZM257.208 22.2051C258.014 22.2051 258.512 21.6777 258.512 20.8428V5.46191H258.644L269.762 21.3408C270.23 22.0146 270.567 22.2051 271.285 22.2051C272.223 22.2051 272.779 21.6631 272.779 20.7695V2.01953C272.779 1.18457 272.281 0.657227 271.476 0.657227C270.67 0.657227 270.172 1.18457 270.172 2.01953V17.459H270.04L258.937 1.53613C258.468 0.862305 258.116 0.657227 257.413 0.657227C256.505 0.657227 255.904 1.27246 255.904 2.19531V20.8428C255.904 21.6777 256.402 22.2051 257.208 22.2051ZM278.199 22.2051C279.005 22.2051 279.518 21.6777 279.518 20.8428V12.8447H287.853C288.585 12.8447 289.098 12.376 289.098 11.6729C289.098 10.9697 288.585 10.501 287.853 10.501H279.518V3.23535H288.673C289.42 3.23535 289.933 2.75195 289.933 2.04883C289.933 1.3457 289.42 0.862305 288.673 0.862305H278.199C277.394 0.862305 276.881 1.38965 276.881 2.22461V20.8428C276.881 21.6777 277.394 22.2051 278.199 22.2051ZM299.396 22.2051C300.201 22.2051 300.714 21.6777 300.714 20.8428V3.23535H306.339C307.086 3.23535 307.599 2.75195 307.599 2.04883C307.599 1.3457 307.086 0.862305 306.339 0.862305H292.452C291.705 0.862305 291.192 1.3457 291.192 2.04883C291.192 2.75195 291.705 3.23535 292.452 3.23535H298.077V20.8428C298.077 21.6777 298.59 22.2051 299.396 22.2051Z" fill="white"/>
</svg>